<svg id="Capa_1" enable-background="new 0 0 511.399 511.399" height="512" viewBox="0 0 511.399 511.399" width="512" xmlns="http://www.w3.org/2000/svg"><g><path d="m323.137 180.334h76.752v106.513h-76.752z" fill="#544f56"/><path d="m242.363 342.307h-91.174c-7.813 0-14.147-6.334-14.147-14.147v-20.741h119.468v20.741c0 7.813-6.334 14.147-14.147 14.147z" fill="#655e67"/><path d="m160.68 342.307h72.193v27.396h-72.193z" fill="#444145"/><path d="m176.751 369.704h40.051v114.763h-40.051z" fill="#655e67"/><path d="m300.534 307.419h-209.178c-12.483 0-22.603-10.12-22.603-22.603v-104.482c0-12.483 10.12-22.603 22.603-22.603h209.178c12.483 0 22.603 10.12 22.603 22.603v104.483c0 12.483-10.12 22.602-22.603 22.602z" fill="#8c818f"/><path d="m300.534 157.73h-30c12.483 0 22.603 10.12 22.603 22.603v104.483c0 12.483-10.12 22.603-22.603 22.603h30c12.483 0 22.603-10.12 22.603-22.603v-104.482c0-12.484-10.12-22.604-22.603-22.604z" fill="#766d78"/><path d="m102.923 119.067h186.044v38.663h-186.044z" fill="#655e67"/><path d="m288.967 90.213h-215.35v-1.704c0-9.136-7.407-16.543-16.543-16.543h-42.155c-3.956 0-7.163 3.207-7.163 7.163v52.012c0 3.956 3.207 7.163 7.163 7.163h42.155c9.137 0 16.543-7.407 16.543-16.543v-2.693h215.349v-28.855z" fill="#a29aa5"/><path d="m258.967 90.213h30v28.854h-30z" fill="#766d78"/><path d="m491.311 73.952-151.542 8.369c-7.059.471-13.043-5.128-13.043-12.202v-30.958c0-7.074 5.984-12.673 13.043-12.202l151.542 8.37c6.424.428 11.416 5.764 11.416 12.202v14.219c0 6.438-4.992 11.773-11.416 12.202z" fill="#544f56"/><path d="m491.311 35.328-151.542-8.37c-2.287-.153-4.457.34-6.352 1.306l127.893 7.063c6.424.428 11.416 5.764 11.416 12.202v14.219c0 6.438-4.992 11.774-11.416 12.202l-127.893 7.063c1.895.966 4.064 1.459 6.352 1.306l151.542-8.369c6.424-.428 11.416-5.764 11.416-12.202v-14.218c0-6.438-4.992-11.774-11.416-12.202z" fill="#444145"/><path d="m454.312 145.56v183.99c28.927-13.671 49.586-49.699 49.586-91.995s-20.659-78.324-49.586-91.995z" fill="#d9d9d9"/><path d="m459.297 343.824-52.491-7.646c-3.972-.578-6.917-3.984-6.917-7.998v-181.251c0-4.014 2.945-7.419 6.917-7.998l52.491-7.646c4.876-.71 9.247 3.07 9.247 7.998v196.544c0 4.927-4.371 8.708-9.247 7.997z" fill="#8c818f"/><path d="m459.297 131.285-22.302 3.248c.967 1.327 1.549 2.96 1.549 4.749v196.544c0 1.789-.582 3.423-1.549 4.749l22.302 3.248c4.876.71 9.247-3.07 9.247-7.998v-196.542c0-4.927-4.371-8.708-9.247-7.998z" fill="#766d78"/><path d="m72.315 381.141-50.52 17.071c-4.833 1.633-10.074-.961-11.707-5.793l-2.101-6.217c-1.633-4.832.961-10.074 5.793-11.707l50.52-17.071c4.832-1.633 10.074.961 11.707 5.793l2.101 6.217c1.633 4.832-.961 10.074-5.793 11.707z" fill="#544f56"/><path d="m68.753 201.686h199.333v56.235h-199.333z" fill="#d82f3c"/><path d="m511.399 237.555c0-33.69-12.771-65.591-34.162-85.337-.374-.345-.774-.644-1.192-.899v-12.036c0-4.528-1.964-8.824-5.389-11.785s-7.96-4.286-12.439-3.634l-52.491 7.646c-7.603 1.108-13.336 7.736-13.336 15.419v25.905h-62.698c-3.341-12.982-15.147-22.603-29.157-22.603h-4.066v-60.018c0-4.142-3.357-7.5-7.5-7.5h-54.619v-10.325c0-6.645 5.406-12.051 12.051-12.051h72.828v9.782c0 5.44 2.278 10.691 6.251 14.407 3.659 3.423 8.522 5.326 13.44 5.326.421 0 152.807-8.412 152.807-8.412.028-.002.057-.003.085-.005 10.327-.688 18.417-9.335 18.417-19.685v-14.22c0-10.35-8.09-18.997-18.502-19.691l-151.457-8.364c-5.423-.361-10.816 1.561-14.79 5.278-3.973 3.716-6.251 8.968-6.251 14.407v6.176h-72.828c-14.916 0-27.051 12.135-27.051 27.051v10.325h-88.827c-4.143 0-7.5 3.358-7.5 7.5s3.357 7.5 7.5 7.5h150.946v13.854h-207.852c-4.143 0-7.5 3.358-7.5 7.5v2.693c0 4.987-4.057 9.043-9.043 9.043h-41.817v-51.336h41.817c4.986 0 9.043 4.057 9.043 9.043v1.704c0 4.142 3.357 7.5 7.5 7.5h26.903c4.143 0 7.5-3.358 7.5-7.5s-3.357-7.5-7.5-7.5h-20.109c-2.601-10.466-12.077-18.247-23.337-18.247h-42.155c-8.085 0-14.662 6.578-14.662 14.663v52.012c0 8.085 6.577 14.663 14.662 14.663h42.155c11.611 0 21.327-8.274 23.561-19.236h14.788v23.663h-4.067c-16.599 0-30.103 13.504-30.103 30.103v104.483c0 16.599 13.504 30.103 30.103 30.103h38.187v13.241c0 1.502.154 2.969.447 4.385l-51.28 21.415c-1.184-1.107-2.536-2.048-4.03-2.787-4.007-1.983-8.545-2.287-12.78-.856l-50.521 17.072c-8.742 2.955-13.451 12.47-10.497 21.213l2.101 6.217c1.431 4.235 4.426 7.66 8.433 9.642 3.932 1.945 8.594 2.27 12.781.855l50.52-17.071c4.235-1.431 7.659-4.426 9.643-8.432 1.918-3.876 2.249-8.249.973-12.363l52.791-22.046c3.634 2.76 8.161 4.402 13.066 4.402h1.99v19.897c0 4.142 3.357 7.5 7.5 7.5h8.57v107.263c0 4.142 3.357 7.5 7.5 7.5h40.052c4.143 0 7.5-3.358 7.5-7.5v-107.263h8.57c4.143 0 7.5-3.358 7.5-7.5v-19.897h1.991c11.936 0 21.646-9.711 21.646-21.646v-13.241h36.523c13.269 0 24.552-8.632 28.548-20.573h63.307v33.835c0 7.683 5.733 14.312 13.336 15.42l52.491 7.645c.751.109 1.502.163 2.25.163 3.718 0 7.338-1.331 10.189-3.797 3.425-2.962 5.389-7.258 5.389-11.785v-11.865c22.199-19.711 35.357-51.696 35.357-86.408zm-177.172-198.394c0-1.785.939-2.93 1.498-3.454.523-.489 1.608-1.272 3.271-1.272.117 0 .237.004.359.012l151.457 8.364c2.476.165 4.415 2.238 4.415 4.719v14.219c0 2.47-1.922 4.535-4.382 4.716l-151.575 8.373c-1.802.118-2.986-.742-3.545-1.265-.56-.524-1.498-1.668-1.498-3.454zm32.927 148.673v91.513h-11.281v-91.513zm-256.731-61.267h171.044v23.663h-171.044zm-39.513 246.592c-.198.4-.547.725-.996.877 0 0-50.52 17.071-50.52 17.071-.898.303-1.898-.195-2.2-1.089l-2.101-6.217c-.307-.907.182-1.894 1.089-2.201 0 0 50.501-17.065 50.521-17.071.872-.295 1.895.188 2.199 1.089 0 0 2.102 6.218 2.102 6.218.151.451.103.924-.094 1.323zm138.392 103.807h-25.052v-99.763h25.052zm16.07-114.762h-57.192v-12.397h57.192zm23.638-34.043c0 3.665-2.981 6.646-6.646 6.646h-91.174c-3.665 0-6.647-2.982-6.647-6.646v-13.241h104.467zm51.523-28.242h-209.177c-8.327 0-15.103-6.775-15.103-15.103v-19.396h42.108c4.143 0 7.5-3.358 7.5-7.5s-3.357-7.5-7.5-7.5h-42.108v-41.235h184.333v41.235h-112.224c-4.143 0-7.5 3.358-7.5 7.5s3.357 7.5 7.5 7.5h119.725c4.143 0 7.5-3.358 7.5-7.5v-56.235c0-4.142-3.357-7.5-7.5-7.5h-191.834v-13.852c0-8.328 6.775-15.103 15.103-15.103h11.567 186.044 11.566c8.328 0 15.104 6.775 15.104 15.103v104.483c0 8.328-6.775 15.103-15.104 15.103zm30.104-112.085h10.235v91.513h-10.235zm51.517 91.512v-91.513h10.235v91.513zm78.89 56.481c0 .073 0 .266-.201.44-.2.173-.392.146-.465.136l-52.491-7.646c-.284-.042-.498-.289-.498-.576v-181.252c0-.287.214-.535.498-.576l52.491-7.646c.023-.003.057-.008.099-.008.094 0 .228.024.366.144.201.174.201.368.201.44zm15-162.677c12.901 16.882 20.354 40.03 20.354 64.405 0 24.698-7.412 47.673-20.354 64.482z"/></g></svg>